<svg width="167" height="81" viewBox="0 0 167 81" fill="none" xmlns="http://www.w3.org/2000/svg">
<path d="M12.032 64V56.192H22.656C24.6187 56.192 26.1547 55.616 27.264 54.464C28.3733 53.312 28.928 51.904 28.928 50.24C28.928 49.088 28.672 48.064 28.16 47.168C27.648 46.272 26.9227 45.568 25.984 45.056C25.088 44.544 23.9787 44.288 22.656 44.288H12.032V36.672H21.824C23.488 36.672 24.832 36.2667 25.856 35.456C26.88 34.6027 27.392 33.3227 27.392 31.616C27.392 29.952 26.88 28.7147 25.856 27.904C24.832 27.0507 23.488 26.624 21.824 26.624H12.032V18.816H23.744C26.6453 18.816 29.0987 19.3493 31.104 20.416C33.152 21.4827 34.7093 22.912 35.776 24.704C36.8427 26.496 37.376 28.48 37.376 30.656C37.376 33.4293 36.48 35.776 34.688 37.696C32.896 39.616 30.2507 40.9387 26.752 41.664L27.008 38.272C30.8053 38.9973 33.728 40.4693 35.776 42.688C37.8667 44.9067 38.912 47.6373 38.912 50.88C38.912 53.3547 38.2933 55.5947 37.056 57.6C35.8613 59.5627 34.112 61.12 31.808 62.272C29.5467 63.424 26.816 64 23.616 64H12.032ZM4.352 64V18.816H14.272V64H4.352ZM34.28 64L52.2 18.816H61.288L79.016 64H68.392L54.824 26.496H58.472L44.712 64H34.28ZM44.456 55.808V47.616H69.096V55.808H44.456ZM82.901 64V55.168H94.101C96.8317 55.168 99.221 54.6347 101.269 53.568C103.317 52.4587 104.896 50.8587 106.005 48.768C107.114 46.6773 107.669 44.2027 107.669 41.344C107.669 38.4853 107.093 36.032 105.941 33.984C104.832 31.936 103.253 30.3573 101.205 29.248C99.1997 28.1387 96.8317 27.584 94.101 27.584H82.581V18.816H94.229C97.6423 18.816 100.778 19.3707 103.637 20.48C106.538 21.5467 109.056 23.104 111.189 25.152C113.365 27.1573 115.029 29.5467 116.181 32.32C117.376 35.0507 117.973 38.08 117.973 41.408C117.973 44.6933 117.376 47.7227 116.181 50.496C115.029 53.2693 113.386 55.6587 111.253 57.664C109.12 59.6693 106.602 61.2267 103.701 62.336C100.842 63.4453 97.7277 64 94.357 64H82.901ZM76.117 64V18.816H86.165V64H76.117Z" fill="white"/>
<path d="M127.36 39V24.88H130.5V39H127.36ZM136.1 39V24.88H139.26V39H136.1ZM129.24 33.1V30.38H137.14V33.1H129.24ZM145.749 39.2C144.856 39.2 144.056 38.98 143.349 38.54C142.656 38.1 142.103 37.5 141.689 36.74C141.289 35.98 141.089 35.1133 141.089 34.14C141.089 33.1667 141.289 32.3 141.689 31.54C142.103 30.78 142.656 30.18 143.349 29.74C144.056 29.3 144.856 29.08 145.749 29.08C146.403 29.08 146.989 29.2067 147.509 29.46C148.043 29.7133 148.476 30.0667 148.809 30.52C149.143 30.96 149.329 31.4667 149.369 32.04V36.24C149.329 36.8133 149.143 37.3267 148.809 37.78C148.489 38.22 148.063 38.5667 147.529 38.82C146.996 39.0733 146.403 39.2 145.749 39.2ZM146.369 36.44C147.023 36.44 147.549 36.2267 147.949 35.8C148.349 35.36 148.549 34.8067 148.549 34.14C148.549 33.6867 148.456 33.2867 148.269 32.94C148.096 32.5933 147.843 32.3267 147.509 32.14C147.189 31.94 146.816 31.84 146.389 31.84C145.963 31.84 145.583 31.94 145.249 32.14C144.929 32.3267 144.669 32.5933 144.469 32.94C144.283 33.2867 144.189 33.6867 144.189 34.14C144.189 34.58 144.283 34.9733 144.469 35.32C144.656 35.6667 144.916 35.94 145.249 36.14C145.583 36.34 145.956 36.44 146.369 36.44ZM148.429 39V36.38L148.889 34.02L148.429 31.66V29.28H151.429V39H148.429ZM153.584 39V29.28H156.644V39H153.584ZM155.124 27.94C154.644 27.94 154.244 27.78 153.924 27.46C153.617 27.1267 153.464 26.7267 153.464 26.26C153.464 25.78 153.617 25.38 153.924 25.06C154.244 24.74 154.644 24.58 155.124 24.58C155.604 24.58 155.997 24.74 156.304 25.06C156.611 25.38 156.764 25.78 156.764 26.26C156.764 26.7267 156.611 27.1267 156.304 27.46C155.997 27.78 155.604 27.94 155.124 27.94ZM158.799 39V29.28H161.859V39H158.799ZM161.859 33.66L160.579 32.66C160.832 31.5267 161.259 30.6467 161.859 30.02C162.459 29.3933 163.292 29.08 164.359 29.08C164.825 29.08 165.232 29.1533 165.579 29.3C165.939 29.4333 166.252 29.6467 166.519 29.94L164.699 32.24C164.565 32.0933 164.399 31.98 164.199 31.9C163.999 31.82 163.772 31.78 163.519 31.78C163.012 31.78 162.605 31.94 162.299 32.26C162.005 32.5667 161.859 33.0333 161.859 33.66Z" fill="white"/>
<path d="M129.48 59V56.24H132.98C133.833 56.24 134.58 56.0733 135.22 55.74C135.86 55.3933 136.353 54.8933 136.7 54.24C137.047 53.5867 137.22 52.8133 137.22 51.92C137.22 51.0267 137.04 50.26 136.68 49.62C136.333 48.98 135.84 48.4867 135.2 48.14C134.573 47.7933 133.833 47.62 132.98 47.62H129.38V44.88H133.02C134.087 44.88 135.067 45.0533 135.96 45.4C136.867 45.7333 137.653 46.22 138.32 46.86C139 47.4867 139.52 48.2333 139.88 49.1C140.253 49.9533 140.44 50.9 140.44 51.94C140.44 52.9667 140.253 53.9133 139.88 54.78C139.52 55.6467 139.007 56.3933 138.34 57.02C137.673 57.6467 136.887 58.1333 135.98 58.48C135.087 58.8267 134.113 59 133.06 59H129.48ZM127.36 59V44.88H130.5V59H127.36ZM146.218 59.2C145.325 59.2 144.525 58.98 143.818 58.54C143.125 58.1 142.571 57.5 142.158 56.74C141.758 55.98 141.558 55.1133 141.558 54.14C141.558 53.1667 141.758 52.3 142.158 51.54C142.571 50.78 143.125 50.18 143.818 49.74C144.525 49.3 145.325 49.08 146.218 49.08C146.871 49.08 147.458 49.2067 147.978 49.46C148.511 49.7133 148.945 50.0667 149.278 50.52C149.611 50.96 149.798 51.4667 149.838 52.04V56.24C149.798 56.8133 149.611 57.3267 149.278 57.78C148.958 58.22 148.531 58.5667 147.998 58.82C147.465 59.0733 146.871 59.2 146.218 59.2ZM146.838 56.44C147.491 56.44 148.018 56.2267 148.418 55.8C148.818 55.36 149.018 54.8067 149.018 54.14C149.018 53.6867 148.925 53.2867 148.738 52.94C148.565 52.5933 148.311 52.3267 147.978 52.14C147.658 51.94 147.285 51.84 146.858 51.84C146.431 51.84 146.051 51.94 145.718 52.14C145.398 52.3267 145.138 52.5933 144.938 52.94C144.751 53.2867 144.658 53.6867 144.658 54.14C144.658 54.58 144.751 54.9733 144.938 55.32C145.125 55.6667 145.385 55.94 145.718 56.14C146.051 56.34 146.425 56.44 146.838 56.44ZM148.898 59V56.38L149.358 54.02L148.898 51.66V49.28H151.898V59H148.898ZM157.053 59.04L153.053 49.28H156.353L158.893 57.02H157.673L160.273 49.28H163.573L159.413 59.04H157.053ZM154.553 63.1L157.473 56.8L159.413 59.04L157.693 63.1H154.553Z" fill="white"/>
</svg>
